<svg version="1.1" xmlns="http://www.w3.org/2000/svg" viewBox="0 0 385 386.13636363636374" width="385" height="386.13636363636374">
  <!-- svg-source:excalidraw -->
  
  <defs>
    <style>
      @font-face {
        font-family: "Virgil";
        src: url("https://excalidraw.com/Virgil.woff2");
      }
      @font-face {
        font-family: "Cascadia";
        src: url("https://excalidraw.com/Cascadia.woff2");
      }
    </style>
  </defs>
  <g stroke-linecap="round" transform="translate(10 10) rotate(0 182.5 182.5)"><path d="M146.96 2.7 C162.35 -3.1, 182.63 -0.39, 199.88 1.29 C217.13 2.97, 234.59 6.62, 250.47 12.76 C266.36 18.9, 281.82 27.45, 295.18 38.14 C308.55 48.84, 320.68 62.84, 330.67 76.94 C340.67 91.04, 349.49 106.58, 355.16 122.76 C360.82 138.94, 363.82 156.86, 364.66 174.03 C365.51 191.19, 364.34 209.04, 360.23 225.76 C356.12 242.49, 348.66 259.76, 339.99 274.38 C331.32 289.01, 320.35 301.78, 308.19 313.51 C296.04 325.24, 282.16 336.76, 267.08 344.75 C252 352.74, 234.6 358.35, 217.72 361.45 C200.83 364.55, 183.02 364.89, 165.76 363.33 C148.5 361.77, 129.98 358.33, 114.15 352.09 C98.33 345.86, 84.28 336.46, 70.81 325.91 C57.34 315.35, 43.34 302.62, 33.33 288.78 C23.32 274.94, 16.25 259.05, 10.74 242.87 C5.23 226.69, 1.18 208.79, 0.26 191.7 C-0.66 174.61, 1.26 157.2, 5.2 140.33 C9.15 123.46, 15.48 105.43, 23.94 90.49 C32.39 75.56, 43.44 62.55, 55.95 50.71 C68.45 38.87, 82.39 27.58, 98.98 19.46 C115.58 11.34, 144.67 4.51, 155.49 1.97 C166.32 -0.57, 163.36 1.28, 163.93 4.21 M198.2 2.11 C214.62 0.58, 232.79 6.8, 249 12.82 C265.2 18.83, 281.69 27.75, 295.44 38.2 C309.19 48.65, 321.39 61.55, 331.49 75.52 C341.59 89.49, 350.74 105.91, 356.04 122.03 C361.33 138.15, 362.35 154.96, 363.26 172.27 C364.18 189.58, 365.47 209.09, 361.54 225.9 C357.62 242.7, 348.35 258.34, 339.71 273.1 C331.08 287.86, 321.89 302.75, 309.73 314.45 C297.58 326.16, 282.28 335.29, 266.77 343.31 C251.27 351.34, 233.49 359.14, 216.7 362.6 C199.9 366.05, 182.75 366, 165.99 364.06 C149.24 362.12, 131.9 357.28, 116.17 350.94 C100.43 344.6, 85.3 336.16, 71.59 326.02 C57.87 315.89, 44.16 304.14, 33.86 290.12 C23.55 276.11, 15.45 258.4, 9.74 241.94 C4.03 225.48, 0.32 208.15, -0.39 191.38 C-1.09 174.6, 1.65 157.9, 5.5 141.28 C9.36 124.66, 14.13 106.64, 22.75 91.65 C31.36 76.66, 44.48 63.07, 57.2 51.35 C69.93 39.63, 84.23 29.32, 99.1 21.34 C113.97 13.35, 129.62 6.71, 146.43 3.43 C163.23 0.15, 191.04 1.43, 199.94 1.67 C208.83 1.91, 200 1.92, 199.78 4.89" stroke="none" stroke-width="0" fill="#8b55cd"></path><path d="M222.02 4.76 C238.58 5.18, 256.42 13.65, 271.34 21.87 C286.25 30.08, 299.57 41.93, 311.51 54.06 C323.46 66.19, 334.89 79.77, 343 94.65 C351.11 109.54, 356.58 126.47, 360.18 143.39 C363.78 160.31, 365.77 179.09, 364.6 196.16 C363.43 213.23, 359.07 229.85, 353.16 245.83 C347.24 261.8, 339.3 277.99, 329.11 292 C318.93 306, 306.12 319.53, 292.07 329.85 C278.03 340.17, 260.99 348.09, 244.85 353.9 C228.71 359.7, 212.25 363.6, 195.24 364.69 C178.23 365.78, 159.59 364.3, 142.79 360.45 C125.98 356.6, 109.36 349.97, 94.44 341.61 C79.52 333.24, 65.31 322.44, 53.27 310.25 C41.23 298.06, 30.28 283.25, 22.18 268.48 C14.08 253.71, 8.26 238.29, 4.66 221.64 C1.06 204.99, -0.49 185.72, 0.61 168.56 C1.7 151.4, 5.16 134.74, 11.25 118.67 C17.34 102.6, 26.81 85.76, 37.16 72.15 C47.5 58.54, 59.62 47.16, 73.33 37.04 C87.04 26.92, 103.14 17.49, 119.41 11.43 C135.68 5.37, 152.11 1.51, 170.96 0.69 C189.81 -0.13, 220.56 4.31, 232.52 6.5 C244.48 8.69, 243.41 10.71, 242.71 13.84 M172.04 -1.16 C188.07 -4.64, 208.49 1.09, 225.3 5.28 C242.11 9.46, 258.1 15.37, 272.9 23.93 C287.7 32.5, 302.34 44.29, 314.1 56.67 C325.85 69.05, 335.42 82.93, 343.44 98.22 C351.45 113.51, 358.72 131.62, 362.21 148.43 C365.7 165.24, 366.26 182.28, 364.36 199.09 C362.46 215.9, 357 233.26, 350.8 249.31 C344.59 265.36, 337.63 281.74, 327.11 295.4 C316.6 309.06, 301.67 321.12, 287.71 331.25 C273.75 341.38, 259.12 350.35, 243.35 356.17 C227.57 361.99, 210.35 365.76, 193.06 366.18 C175.78 366.6, 156.58 362.79, 139.62 358.71 C122.67 354.63, 106.19 350.13, 91.34 341.71 C76.48 333.28, 62.18 320.78, 50.47 308.17 C38.77 295.55, 28.92 280.97, 21.1 266.04 C13.29 251.1, 7.18 235.06, 3.57 218.56 C-0.04 202.07, -1.98 184.3, -0.54 167.06 C0.9 149.82, 5.9 131.08, 12.21 115.14 C18.52 99.19, 26.84 84.64, 37.31 71.4 C47.79 58.15, 61.12 45.77, 75.05 35.66 C88.99 25.55, 104.67 16.55, 120.92 10.71 C137.17 4.87, 163.58 1.81, 172.53 0.6 C181.49 -0.6, 174.6 0.43, 174.63 3.47" stroke="#000000" stroke-width="1" fill="none"></path></g><g stroke-linecap="round" transform="translate(91.25 92.5) rotate(0 103.125 141.81818181818187)"><path d="M0.38 0.96 L206.84 -0.5 L206.25 282.03 L-0.78 284.51" stroke="none" stroke-width="0" fill="#fff"></path><path d="M-1.4 0.4 C53.01 0.41, 107.43 1.25, 207.88 0.18 M0.36 -0.46 C54.63 -0.03, 109.86 -0.8, 207.05 0.24 M206.26 1.08 C206.24 81.91, 206.09 162.81, 205.15 282.22 M206.16 0 C206.98 93.2, 206.66 187.7, 206.83 283.7 M207.11 284.39 C143.83 283.77, 84.88 284.89, 1.41 285.32 M206.73 283.38 C151.2 283.3, 96.66 283.09, 0.5 282.86 M-1.32 284.82 C-0.17 177, -0.39 67.94, -0.6 0.37 M0.19 283.34 C0.52 173.35, 0.91 63.27, -0.64 -0.48" stroke="#343a40" stroke-width="2" fill="none"></path></g><g stroke-linecap="round" transform="translate(124.88636363636397 143.75000000000023) rotate(0 65.90909090909076 8.18181818181813)"><path d="M-1.55 -0.36 L132.53 0.38 L132.37 15.11 L-1 17.51" stroke="none" stroke-width="0" fill="#fff"></path><path d="M-0.37 -0.29 C33.64 -0.1, 69.35 0.17, 133.7 -1.65 M0.39 -0.94 C27.73 -1.18, 54.31 -0.86, 131.86 -0.14 M132.51 -1.62 C131.38 2.28, 131.05 7.51, 133.43 16.11 M132.55 0.47 C131.62 5.24, 131.85 9.98, 132.13 15.59 M132.06 15.11 C95.06 17.29, 57.53 16.6, 0.75 15.72 M131.37 17.25 C104.5 16.46, 77.82 15.08, -0.48 15.48 M-0.37 17.23 C-0.85 10.3, -0.17 7.26, -1.19 -0.43 M-0.78 16.86 C-0.45 12.59, -0.88 6.95, -0.39 -0.6" stroke="#343a40" stroke-width="2" fill="none"></path></g><g stroke-linecap="round" transform="translate(124.88636363636397 231.02272727272748) rotate(0 65.90909090909076 21.818181818181756)"><path d="M-1.89 0.65 L133.09 -0.35 L131.1 43.48 L-1.85 43.48" stroke="none" stroke-width="0" fill="#fff"></path><path d="M0.22 0.58 C35.68 0.03, 68.25 0.03, 130.48 1.11 M0.52 0.94 C35.68 -0.73, 72.27 -0.23, 132.21 0.93 M131.01 1.26 C131.25 16.14, 131.32 33.53, 133.77 43.97 M132.61 0.77 C131.41 12.96, 131.48 25.52, 131.83 42.99 M132.83 44.04 C92.16 44.98, 55.79 44.01, -0.24 44.33 M131.78 43.22 C97.39 45.08, 63.97 43.76, -0.25 43.41 M-0.51 45.18 C-1.01 33.69, 0.45 19.55, -1.16 0.33 M0.58 44.03 C-0.51 31.94, -0.69 20.43, -0.64 1" stroke="#343a40" stroke-width="2" fill="none"></path></g><g stroke-linecap="round" transform="translate(123.97727272727298 187.85389610389643) rotate(0 35.389610389610425 6.129870129870142)"><path d="M1.62 0.92 L72.03 -1.53 L71.08 12.73 L0.68 13.54" stroke="none" stroke-width="0" fill="#fff"></path><path d="M2 -0.51 C24.44 -0.94, 44.37 -0.52, 71.09 1.3 M-0.23 -0.64 C28.11 0.63, 55.41 0.41, 71.22 -0.45 M70.31 -0.18 C70.22 3.03, 70.01 5.73, 69.88 12.91 M71.23 0.01 C71.41 4.11, 70.35 9.6, 70.83 12.48 M70.11 13.12 C46.12 11.54, 25.5 11.93, -1.36 13.6 M69.9 12.21 C50.24 11.21, 27.84 12.07, 0.51 12.22 M0.52 11.48 C-0.2 9.45, 0.21 5.12, 0.91 0.12 M-0.6 12.79 C-0.18 9.86, -0.2 6.79, -0.12 0.31" stroke="#343a40" stroke-width="2" fill="none"></path></g><g stroke-linecap="round" transform="translate(200.34090909090946 187.85389610389643) rotate(0 35.389610389610425 6.129870129870142)"><path d="M-1.26 -1.34 L71.89 -0.57 L69.54 13.25 L1.03 14.13" stroke="none" stroke-width="0" fill="#fff"></path><path d="M-0.85 -1.09 C20.07 1.59, 42.06 1.3, 71.34 -1.09 M0.22 -0.28 C19.26 0.09, 37.63 -0.27, 70.33 0.85 M70.04 -0.01 C71.01 2.19, 70.77 6.7, 70.84 13.36 M70.85 0.37 C71 3.2, 70.64 7.21, 70.47 12.02 M70.68 11.96 C48.99 12.81, 22.33 12.28, 0.39 10.89 M70.04 12.9 C45.1 11.88, 18.38 12.17, -0.51 13.13 M-1.07 13.4 C0.6 9.34, -0.1 7.31, 0.43 0.79 M-0.26 12.49 C-0.61 7.69, 0.17 3.53, -0.39 0.12" stroke="#343a40" stroke-width="2" fill="none"></path></g><g transform="translate(127.61363636363603 133.93181818181824) rotate(0 30.90909090909099 -1.3636363636362603)" stroke="none"><path fill="#343a40" d="M 0,-2.67 Q 0,-2.67 1.04,-2.69 2.09,-2.72 3.47,-3.30 4.86,-3.88 6.08,-4.58 7.31,-5.29 8.57,-5.83 9.83,-6.36 11.10,-6.13 12.38,-5.91 13.62,-5.34 14.87,-4.77 15.57,-3.84 16.26,-2.90 17.36,-2.71 18.46,-2.53 19.80,-2.55 21.14,-2.57 22.33,-2.74 23.52,-2.90 25.22,-3.63 26.92,-4.37 28.14,-4.74 29.37,-5.10 30.63,-5.23 31.88,-5.36 33.32,-5.38 34.76,-5.41 36.56,-4.92 38.35,-4.43 39.76,-4.49 41.17,-4.54 42.52,-4.54 43.87,-4.55 45.23,-4.55 46.60,-4.55 48.10,-4.26 49.61,-3.96 50.51,-3.38 51.41,-2.80 52.58,-3.98 53.75,-5.15 55.30,-4.94 56.84,-4.74 57.94,-4.07 59.04,-3.41 58.14,-2.77 57.23,-2.13 58.81,-3.68 60.39,-5.24 60.98,-5.38 61.56,-5.51 62.16,-5.46 62.76,-5.40 63.30,-5.15 63.85,-4.91 64.29,-4.50 64.73,-4.10 65.02,-3.57 65.31,-3.04 65.42,-2.45 65.52,-1.86 65.43,-1.27 65.34,-0.68 65.07,-0.14 64.80,0.38 64.37,0.80 63.94,1.22 63.39,1.48 62.85,1.74 62.26,1.81 61.66,1.88 61.08,1.76 60.49,1.64 59.97,1.34 59.45,1.04 59.06,0.58 58.66,0.13 58.43,-0.41 58.20,-0.97 58.16,-1.57 58.12,-2.16 58.27,-2.74 58.43,-3.32 58.76,-3.83 59.09,-4.33 59.56,-4.70 60.03,-5.07 60.60,-5.26 61.16,-5.46 61.76,-5.47 62.36,-5.48 62.93,-5.30 63.51,-5.11 63.99,-4.76 64.47,-4.40 64.81,-3.91 65.16,-3.42 65.33,-2.84 65.49,-2.26 65.47,-1.66 65.44,-1.06 65.23,-0.50 65.02,0.05 64.63,0.51 64.25,0.97 63.74,1.29 63.23,1.60 63.23,1.60 63.23,1.60 62.48,2.11 61.72,2.63 60.70,3.17 59.68,3.72 57.89,3.87 56.10,4.01 54.61,2.45 53.12,0.88 54.60,1.25 56.09,1.61 54.68,2.32 53.28,3.02 51.58,3.30 49.88,3.57 48.69,3.16 47.50,2.74 46.14,2.73 44.78,2.73 43.41,2.72 42.04,2.72 40.60,2.70 39.16,2.67 37.91,2.55 36.65,2.43 35.28,2.10 33.90,1.77 32.42,1.74 30.95,1.70 29.34,1.74 27.74,1.77 26.21,2.60 24.67,3.43 23.48,3.89 22.28,4.34 20.80,4.35 19.31,4.35 17.87,4.31 16.43,4.26 15.03,4.01 13.62,3.75 12.85,2.97 12.09,2.19 11.55,0.79 11.01,-0.61 10.01,-0.14 9.01,0.31 7.42,1.19 5.83,2.07 3.96,2.39 2.09,2.72 1.04,2.69 0,2.67 -0.32,2.63 -0.64,2.59 -0.94,2.48 -1.24,2.36 -1.50,2.18 -1.77,2.00 -1.98,1.76 -2.20,1.51 -2.35,1.23 -2.50,0.94 -2.57,0.63 -2.65,0.32 -2.65,-0.00 -2.65,-0.32 -2.57,-0.63 -2.50,-0.94 -2.35,-1.23 -2.20,-1.51 -1.98,-1.76 -1.77,-2.00 -1.50,-2.18 -1.24,-2.36 -0.94,-2.48 -0.63,-2.59 -0.31,-2.63 0.00,-2.67 0.00,-2.67 L 0,-2.67 Z"></path></g><g transform="translate(127.61363636363603 221.2045454545455) rotate(0 30.90909090909099 -1.3636363636362603)" stroke="none"><path fill="#343a40" d="M 0,-2.67 Q 0,-2.67 1.04,-2.69 2.09,-2.72 3.47,-3.30 4.86,-3.88 6.08,-4.58 7.31,-5.29 8.57,-5.83 9.83,-6.36 11.10,-6.13 12.38,-5.91 13.62,-5.34 14.87,-4.77 15.57,-3.84 16.26,-2.90 17.36,-2.71 18.46,-2.53 19.80,-2.55 21.14,-2.57 22.33,-2.74 23.52,-2.90 25.22,-3.63 26.92,-4.37 28.14,-4.74 29.37,-5.10 30.63,-5.23 31.88,-5.36 33.32,-5.38 34.76,-5.41 36.56,-4.92 38.35,-4.43 39.76,-4.49 41.17,-4.54 42.52,-4.54 43.87,-4.55 45.23,-4.55 46.60,-4.55 48.10,-4.26 49.61,-3.96 50.51,-3.38 51.41,-2.80 52.58,-3.98 53.75,-5.15 55.30,-4.94 56.84,-4.74 57.94,-4.07 59.04,-3.41 58.14,-2.77 57.23,-2.13 58.81,-3.68 60.39,-5.24 60.98,-5.38 61.56,-5.51 62.16,-5.46 62.76,-5.40 63.30,-5.15 63.85,-4.91 64.29,-4.50 64.73,-4.10 65.02,-3.57 65.31,-3.04 65.42,-2.45 65.52,-1.86 65.43,-1.27 65.34,-0.68 65.07,-0.14 64.80,0.38 64.37,0.80 63.94,1.22 63.39,1.48 62.85,1.74 62.26,1.81 61.66,1.88 61.08,1.76 60.49,1.64 59.97,1.34 59.45,1.04 59.06,0.58 58.66,0.13 58.43,-0.41 58.20,-0.97 58.16,-1.57 58.12,-2.16 58.27,-2.74 58.43,-3.32 58.76,-3.83 59.09,-4.33 59.56,-4.70 60.03,-5.07 60.60,-5.26 61.16,-5.46 61.76,-5.47 62.36,-5.48 62.93,-5.30 63.51,-5.11 63.99,-4.76 64.47,-4.40 64.81,-3.91 65.16,-3.42 65.33,-2.84 65.49,-2.26 65.47,-1.66 65.44,-1.06 65.23,-0.50 65.02,0.05 64.63,0.51 64.25,0.97 63.74,1.29 63.23,1.60 63.23,1.60 63.23,1.60 62.48,2.11 61.72,2.63 60.70,3.17 59.68,3.72 57.89,3.87 56.10,4.01 54.61,2.45 53.12,0.88 54.60,1.25 56.09,1.61 54.68,2.32 53.28,3.02 51.58,3.30 49.88,3.57 48.69,3.16 47.50,2.74 46.14,2.73 44.78,2.73 43.41,2.72 42.04,2.72 40.60,2.70 39.16,2.67 37.91,2.55 36.65,2.43 35.28,2.10 33.90,1.77 32.42,1.74 30.95,1.70 29.34,1.74 27.74,1.77 26.21,2.60 24.67,3.43 23.48,3.89 22.28,4.34 20.80,4.35 19.31,4.35 17.87,4.31 16.43,4.26 15.03,4.01 13.62,3.75 12.85,2.97 12.09,2.19 11.55,0.79 11.01,-0.61 10.01,-0.14 9.01,0.31 7.42,1.19 5.83,2.07 3.96,2.39 2.09,2.72 1.04,2.69 0,2.67 -0.32,2.63 -0.64,2.59 -0.94,2.48 -1.24,2.36 -1.50,2.18 -1.77,2.00 -1.98,1.76 -2.20,1.51 -2.35,1.23 -2.50,0.94 -2.57,0.63 -2.65,0.32 -2.65,-0.00 -2.65,-0.32 -2.57,-0.63 -2.50,-0.94 -2.35,-1.23 -2.20,-1.51 -1.98,-1.76 -1.77,-2.00 -1.50,-2.18 -1.24,-2.36 -0.94,-2.48 -0.63,-2.59 -0.31,-2.63 0.00,-2.67 0.00,-2.67 L 0,-2.67 Z"></path></g><g transform="translate(126.62662337662277 178.47727272727275) rotate(0 30.025974025974165 -1.4285714285713311)" stroke="none"><path fill="#343a40" d="M 0,-2.77 Q 0,-2.77 1.01,-2.80 2.03,-2.83 3.35,-3.39 4.68,-3.95 5.87,-4.64 7.07,-5.33 8.30,-5.85 9.53,-6.37 10.80,-6.15 12.06,-5.93 13.28,-5.37 14.50,-4.82 15.19,-3.89 15.88,-2.96 17.34,-2.82 18.79,-2.67 19.99,-2.66 21.19,-2.65 22.58,-3.41 23.97,-4.18 25.06,-4.31 26.14,-4.45 27.32,-4.81 28.50,-5.17 29.74,-5.29 30.97,-5.42 32.37,-5.44 33.77,-5.47 35.54,-4.99 37.31,-4.51 38.65,-4.57 39.99,-4.63 41.31,-4.63 42.62,-4.63 43.94,-4.64 45.26,-4.64 46.75,-4.34 48.23,-4.04 49.12,-3.47 50.02,-2.90 51.10,-4.06 52.18,-5.22 53.72,-5.01 55.25,-4.80 56.35,-4.14 57.44,-3.48 56.50,-2.87 55.56,-2.26 57.09,-3.78 58.62,-5.30 59.21,-5.44 59.79,-5.57 60.39,-5.52 60.99,-5.46 61.54,-5.21 62.09,-4.97 62.53,-4.56 62.97,-4.15 63.26,-3.63 63.55,-3.10 63.66,-2.51 63.76,-1.92 63.67,-1.32 63.58,-0.73 63.31,-0.19 63.04,0.33 62.61,0.75 62.17,1.17 61.63,1.43 61.09,1.69 60.49,1.77 59.90,1.84 59.31,1.72 58.72,1.60 58.20,1.29 57.68,0.99 57.28,0.54 56.89,0.08 56.66,-0.46 56.43,-1.02 56.39,-1.62 56.35,-2.22 56.50,-2.80 56.65,-3.38 56.98,-3.88 57.31,-4.38 57.79,-4.75 58.26,-5.13 58.83,-5.32 59.40,-5.52 60.00,-5.53 60.60,-5.54 61.17,-5.36 61.74,-5.17 62.23,-4.81 62.71,-4.46 63.05,-3.96 63.40,-3.47 63.57,-2.89 63.74,-2.32 63.71,-1.72 63.69,-1.11 63.47,-0.55 63.26,0.00 62.87,0.46 62.49,0.93 61.98,1.24 61.47,1.56 61.47,1.56 61.47,1.56 60.76,2.04 60.05,2.52 59.03,3.06 58.01,3.60 56.23,3.75 54.45,3.90 52.98,2.36 51.51,0.82 53.03,1.19 54.56,1.55 53.17,2.24 51.79,2.93 50.12,3.20 48.44,3.48 47.29,3.08 46.15,2.67 44.82,2.67 43.50,2.66 42.17,2.65 40.84,2.65 39.44,2.63 38.04,2.60 36.81,2.49 35.58,2.37 34.25,2.05 32.93,1.73 31.52,1.69 30.11,1.65 28.57,1.66 27.03,1.68 25.52,2.50 24.02,3.32 22.83,3.77 21.65,4.21 20.21,4.22 18.76,4.23 17.36,4.18 15.95,4.13 14.57,3.88 13.19,3.63 12.44,2.86 11.68,2.10 11.21,0.73 10.75,-0.62 9.78,-0.17 8.80,0.27 7.25,1.13 5.70,1.98 3.86,2.30 2.03,2.62 1.01,2.59 0,2.56 -0.31,2.53 -0.63,2.49 -0.94,2.37 -1.24,2.26 -1.50,2.08 -1.77,1.89 -1.98,1.65 -2.20,1.41 -2.35,1.12 -2.49,0.84 -2.57,0.53 -2.65,0.21 -2.65,-0.10 -2.65,-0.42 -2.57,-0.73 -2.49,-1.05 -2.35,-1.33 -2.20,-1.62 -1.98,-1.86 -1.77,-2.10 -1.50,-2.28 -1.24,-2.47 -0.94,-2.58 -0.63,-2.69 -0.31,-2.73 0.00,-2.77 0.00,-2.77 L 0,-2.77 Z"></path></g><g transform="translate(202.99025974025926 178.47727272727275) rotate(0 30.025974025974165 -1.4285714285713311)" stroke="none"><path fill="#343a40" d="M 0,-2.77 Q 0,-2.77 1.01,-2.80 2.03,-2.83 3.35,-3.39 4.68,-3.95 5.87,-4.64 7.07,-5.33 8.30,-5.85 9.53,-6.37 10.80,-6.15 12.06,-5.93 13.28,-5.37 14.50,-4.82 15.19,-3.89 15.88,-2.96 17.34,-2.82 18.79,-2.67 19.99,-2.66 21.19,-2.65 22.58,-3.41 23.97,-4.18 25.06,-4.31 26.14,-4.45 27.32,-4.81 28.50,-5.17 29.74,-5.29 30.97,-5.42 32.37,-5.44 33.77,-5.47 35.54,-4.99 37.31,-4.51 38.65,-4.57 39.99,-4.63 41.31,-4.63 42.62,-4.63 43.94,-4.64 45.26,-4.64 46.75,-4.34 48.23,-4.04 49.12,-3.47 50.02,-2.90 51.10,-4.06 52.18,-5.22 53.72,-5.01 55.25,-4.80 56.35,-4.14 57.44,-3.48 56.50,-2.87 55.56,-2.26 57.09,-3.78 58.62,-5.30 59.21,-5.44 59.79,-5.57 60.39,-5.52 60.99,-5.46 61.54,-5.21 62.09,-4.97 62.53,-4.56 62.97,-4.15 63.26,-3.63 63.55,-3.10 63.66,-2.51 63.76,-1.92 63.67,-1.32 63.58,-0.73 63.31,-0.19 63.04,0.33 62.61,0.75 62.17,1.17 61.63,1.43 61.09,1.69 60.49,1.77 59.90,1.84 59.31,1.72 58.72,1.60 58.20,1.29 57.68,0.99 57.28,0.54 56.89,0.08 56.66,-0.46 56.43,-1.02 56.39,-1.62 56.35,-2.22 56.50,-2.80 56.65,-3.38 56.98,-3.88 57.31,-4.38 57.79,-4.75 58.26,-5.13 58.83,-5.32 59.40,-5.52 60.00,-5.53 60.60,-5.54 61.17,-5.36 61.74,-5.17 62.23,-4.81 62.71,-4.46 63.05,-3.96 63.40,-3.47 63.57,-2.89 63.74,-2.32 63.71,-1.72 63.69,-1.11 63.47,-0.55 63.26,0.00 62.87,0.46 62.49,0.93 61.98,1.24 61.47,1.56 61.47,1.56 61.47,1.56 60.76,2.04 60.05,2.52 59.03,3.06 58.01,3.60 56.23,3.75 54.45,3.90 52.98,2.36 51.51,0.82 53.03,1.19 54.56,1.55 53.17,2.24 51.79,2.93 50.12,3.20 48.44,3.48 47.29,3.08 46.15,2.67 44.82,2.67 43.50,2.66 42.17,2.65 40.84,2.65 39.44,2.63 38.04,2.60 36.81,2.49 35.58,2.37 34.25,2.05 32.93,1.73 31.52,1.69 30.11,1.65 28.57,1.66 27.03,1.68 25.52,2.50 24.02,3.32 22.83,3.77 21.65,4.21 20.21,4.22 18.76,4.23 17.36,4.18 15.95,4.13 14.57,3.88 13.19,3.63 12.44,2.86 11.68,2.10 11.21,0.73 10.75,-0.62 9.78,-0.17 8.80,0.27 7.25,1.13 5.70,1.98 3.86,2.30 2.03,2.62 1.01,2.59 0,2.56 -0.31,2.53 -0.63,2.49 -0.94,2.37 -1.24,2.26 -1.50,2.08 -1.77,1.89 -1.98,1.65 -2.20,1.41 -2.35,1.12 -2.49,0.84 -2.57,0.53 -2.65,0.21 -2.65,-0.10 -2.65,-0.42 -2.57,-0.73 -2.49,-1.05 -2.35,-1.33 -2.20,-1.62 -1.98,-1.86 -1.77,-2.10 -1.50,-2.28 -1.24,-2.47 -0.94,-2.58 -0.63,-2.69 -0.31,-2.73 0.00,-2.77 0.00,-2.77 L 0,-2.77 Z"></path></g><g stroke-linecap="round" transform="translate(194.88636363636397 291.022727272727) rotate(0 30.909090909090537 9.090909090909122)"><path d="M0.69 1.05 L62.24 -1.67 L63.34 17.76 L-1.23 16.34" stroke="none" stroke-width="0" fill="#8b55cd"></path><path d="M1.29 -0.19 C20.76 0.74, 42.42 -0.24, 61.6 1.95 M0.72 -0.72 C23.84 0.97, 50.17 0.74, 62.44 -0.88 M61.75 -0.88 C60.7 4.09, 62.12 6.97, 62.73 16.83 M61.78 0.24 C62.18 7.22, 61.58 12.96, 61.39 17.9 M60.07 16.7 C42.59 20.54, 23.96 17.4, -0.61 16.5 M61.81 18.74 C44.13 17.35, 26.8 18.65, -0.38 17.59 M-0.59 17.75 C0.69 12.28, -1.72 6.01, 1.44 0.05 M0.74 18.75 C-0.85 11.45, 0.58 5.94, 0.15 0.18" stroke="#343a40" stroke-width="1" fill="none"></path></g><g stroke-opacity="0.6" fill-opacity="0.6" stroke-linecap="round" transform="translate(122.15909090909099 290.11363636363603) rotate(180.00000000000142 30.909090909090537 9.090909090909122)"><path d="M-1.58 0.01 L59.9 0.57 L62.28 19.19 L-1 18.36" stroke="none" stroke-width="0" fill="#fff"></path><path d="M1.68 1.38 C12.54 1.25, 28.89 -1, 62.02 0.12 M0.15 -0.75 C15.31 0.59, 29.68 0.09, 62.38 0.61 M60.03 -0.75 C63.44 6.49, 63.16 15.87, 60.95 18.54 M60.93 -0.03 C61.99 5.17, 61.04 9.6, 62.42 18.17 M62.16 18.2 C49.86 16.33, 36.03 19.2, 0.9 18.22 M61.1 18.58 C48.02 17.93, 33.45 18.35, -0.62 18.27 M-1.19 19.64 C1.36 13.12, -1.32 5.3, -0.16 -0.19 M-0.18 19 C0.32 13.9, 0.68 10.38, -0.26 0.83" stroke="#343a40" stroke-width="1" fill="none"></path></g><g stroke-linecap="round"><g transform="translate(209.34090909090946 300.1136363636365) rotate(0 14.999999999999773 0.4545454545453822)"><path d="M0 0 C5 0.15, 25 0.76, 30 0.91 M0 0 C5 0.15, 25 0.76, 30 0.91" stroke="#fff" stroke-width="2" fill="none"></path></g><g transform="translate(209.34090909090946 300.1136363636365) rotate(0 14.999999999999773 0.4545454545453822)"><path d="M15.75 5.61 C18.78 4.61, 21.81 3.61, 30 0.91 M15.75 5.61 C20.85 3.93, 25.96 2.24, 30 0.91" stroke="#fff" stroke-width="2" fill="none"></path></g><g transform="translate(209.34090909090946 300.1136363636365) rotate(0 14.999999999999773 0.4545454545453822)"><path d="M16.06 -4.65 C19.03 -3.47, 21.99 -2.28, 30 0.91 M16.06 -4.65 C21.05 -2.66, 26.04 -0.67, 30 0.91" stroke="#fff" stroke-width="2" fill="none"></path></g></g><g stroke-linecap="round"><g stroke-opacity="0.5" fill-opacity="0.5" transform="translate(139.52272727272748 298.2954545454545) rotate(180.00000000000142 14.999999999999773 0.4545454545453822)"><path d="M0 0 C5 0.15, 25 0.76, 30 0.91 M0 0 C5 0.15, 25 0.76, 30 0.91" stroke="#343a40" stroke-width="2" fill="none"></path></g><g stroke-opacity="0.5" fill-opacity="0.5" transform="translate(139.52272727272748 298.2954545454545) rotate(180.00000000000142 14.999999999999773 0.4545454545453822)"><path d="M15.75 5.61 C20.72 3.97, 25.69 2.33, 30 0.91 M15.75 5.61 C19.39 4.41, 23.02 3.21, 30 0.91" stroke="#343a40" stroke-width="2" fill="none"></path></g><g stroke-opacity="0.5" fill-opacity="0.5" transform="translate(139.52272727272748 298.2954545454545) rotate(180.00000000000142 14.999999999999773 0.4545454545453822)"><path d="M16.06 -4.65 C20.92 -2.71, 25.79 -0.77, 30 0.91 M16.06 -4.65 C19.62 -3.23, 23.17 -1.81, 30 0.91" stroke="#343a40" stroke-width="2" fill="none"></path></g></g></svg>